<?xml version="1.0" standalone="no"?>
<!DOCTYPE svg PUBLIC "-//W3C//DTD SVG 20010904//EN"
 "http://www.w3.org/TR/2001/REC-SVG-20010904/DTD/svg10.dtd">
<svg version="1.0" xmlns="http://www.w3.org/2000/svg"
 width="1600.000000pt" height="1600.000000pt" viewBox="0 0 1600.000000 1600.000000"
 preserveAspectRatio="xMidYMid meet">
<metadata>
Created by potrace 1.14, written by Peter Selinger 2001-2017
</metadata>
<g transform="translate(0.000000,1600.000000) scale(0.100000,-0.100000)"
fill="#000000" stroke="none">
<path d="M7788 14665 c-2 -1 -68 -6 -148 -9 -80 -4 -161 -9 -180 -11 -19 -2
-66 -6 -105 -9 -145 -13 -526 -67 -567 -81 -7 -2 -29 -6 -48 -9 -19 -3 -89
-17 -155 -31 -66 -15 -127 -28 -136 -30 -26 -5 -248 -65 -334 -90 -211 -61
-596 -201 -775 -283 -36 -16 -101 -46 -145 -65 -139 -63 -388 -193 -548 -289
-55 -32 -101 -58 -103 -58 -3 0 -17 -9 -32 -19 -15 -11 -81 -54 -146 -96 -257
-166 -558 -395 -786 -599 -30 -28 -75 -68 -100 -90 -171 -154 -541 -550 -660
-706 -14 -18 -30 -38 -36 -44 -16 -18 -219 -288 -240 -321 -10 -16 -24 -36
-30 -42 -7 -7 -59 -86 -116 -175 -283 -442 -505 -891 -673 -1358 -14 -41 -30
-85 -35 -96 -18 -46 -110 -356 -144 -484 -49 -189 -99 -421 -121 -565 -2 -17
-7 -43 -9 -60 -14 -78 -46 -328 -51 -395 -3 -41 -8 -88 -10 -105 -23 -183 -24
-961 -1 -1082 2 -10 7 -56 11 -103 3 -47 8 -96 10 -110 2 -14 6 -47 9 -75 4
-27 9 -63 11 -80 2 -16 7 -52 10 -80 4 -27 9 -59 12 -69 3 -11 7 -34 9 -52 4
-46 59 -315 95 -464 144 -604 401 -1240 721 -1785 32 -55 62 -106 66 -112 34
-61 278 -424 314 -468 4 -5 38 -50 75 -100 37 -49 70 -92 73 -95 3 -3 24 -27
45 -55 22 -27 42 -52 45 -55 3 -3 30 -34 60 -70 213 -254 493 -534 748 -751
261 -222 378 -310 657 -495 88 -58 172 -114 187 -125 15 -10 30 -19 33 -19 3
0 49 -26 103 -58 140 -84 555 -302 576 -302 3 0 38 -15 78 -34 250 -117 604
-243 968 -344 317 -88 785 -173 1095 -198 44 -3 87 -8 97 -9 124 -24 848 -24
1078 0 19 2 67 6 105 9 39 4 86 8 105 11 19 2 73 9 120 15 100 13 324 49 342
55 7 2 29 6 48 9 19 3 89 17 155 32 66 14 131 29 145 31 29 6 243 64 345 94
118 35 397 130 454 155 29 13 58 24 63 24 6 0 26 7 46 16 21 9 46 20 57 24 98
39 287 126 435 199 181 91 393 207 500 276 19 12 62 39 95 60 167 105 555 380
585 414 3 3 28 24 55 46 188 149 545 483 710 666 119 131 120 132 267 309 97
116 266 346 377 512 267 401 428 708 651 1238 30 71 111 293 116 318 2 13 11
40 19 60 29 76 135 446 150 521 2 9 17 79 33 156 17 77 33 156 36 175 3 19 8
45 10 56 2 12 7 37 10 55 3 19 7 43 10 54 2 11 7 49 11 85 4 36 8 67 10 70 2
3 6 34 9 70 4 36 8 75 10 85 2 11 7 56 11 100 4 44 9 96 11 115 10 111 18 322
18 510 0 202 -10 513 -18 556 -2 10 -7 59 -11 109 -3 49 -8 92 -10 95 -1 3 -6
37 -9 75 -4 39 -9 81 -11 95 -6 31 -12 69 -21 135 -3 28 -8 59 -10 70 -2 11
-7 34 -10 50 -6 34 -53 269 -59 300 -3 11 -7 29 -9 40 -10 48 -50 201 -88 330
-162 564 -390 1088 -689 1583 -41 67 -78 130 -84 140 -54 93 -343 500 -421
592 -12 14 -59 70 -105 125 -464 557 -1061 1069 -1684 1442 -159 95 -289 166
-465 254 -139 69 -159 78 -320 149 -502 221 -1171 412 -1670 475 -30 4 -62 9
-70 10 -35 6 -149 20 -255 30 -33 3 -78 8 -100 10 -125 13 -746 29 -757 20z
m487 -1340 c77 -3 154 -8 170 -10 17 -2 62 -6 100 -10 94 -9 191 -21 246 -30
13 -2 40 -6 59 -9 19 -3 62 -10 95 -16 33 -6 74 -14 90 -16 273 -48 787 -204
1019 -308 17 -8 65 -29 106 -46 147 -63 434 -210 538 -276 29 -19 54 -34 57
-34 12 0 291 -185 405 -269 83 -61 269 -208 285 -225 6 -6 39 -36 75 -66 52
-44 182 -164 244 -226 46 -46 189 -197 221 -234 89 -101 151 -174 164 -194 8
-12 18 -23 21 -26 21 -16 203 -270 292 -405 192 -294 327 -549 484 -920 78
-184 219 -632 248 -785 2 -14 12 -59 21 -100 9 -41 18 -84 20 -95 9 -50 25
-142 29 -161 2 -12 7 -45 11 -74 4 -29 8 -61 10 -71 2 -10 7 -49 10 -86 4 -37
8 -75 10 -83 2 -8 7 -60 11 -115 4 -55 8 -118 10 -140 4 -52 4 -538 0 -590 -2
-22 -6 -85 -10 -140 -4 -55 -10 -116 -12 -135 -3 -19 -7 -53 -10 -75 -2 -22
-12 -87 -20 -145 -8 -58 -17 -121 -20 -140 -7 -48 -94 -443 -100 -452 -3 -4
-7 -16 -9 -25 -19 -102 -152 -493 -220 -648 -7 -16 -27 -64 -45 -105 -182
-421 -503 -937 -784 -1261 -17 -19 -53 -61 -80 -92 -142 -167 -411 -432 -570
-562 -27 -22 -54 -44 -60 -50 -22 -20 -110 -89 -160 -126 -28 -21 -56 -42 -62
-48 -28 -23 -297 -204 -382 -255 -493 -298 -997 -506 -1542 -635 -69 -16 -138
-32 -155 -34 -16 -3 -55 -10 -85 -16 -30 -6 -68 -13 -85 -16 -16 -2 -39 -7
-51 -9 -12 -2 -45 -7 -74 -11 -29 -4 -61 -8 -71 -10 -10 -2 -49 -7 -86 -10
-37 -4 -75 -8 -83 -10 -8 -2 -60 -7 -115 -10 -55 -4 -120 -8 -145 -11 -54 -5
-514 -5 -585 0 -27 2 -90 7 -140 10 -49 4 -101 8 -115 11 -25 4 -54 8 -175 21
-33 3 -62 8 -65 9 -3 2 -30 6 -60 10 -30 4 -57 8 -60 10 -3 2 -30 6 -60 10
-30 4 -58 9 -61 11 -4 2 -22 6 -40 8 -60 8 -330 76 -484 123 -375 113 -750
274 -1093 469 -104 60 -403 250 -442 281 -8 7 -61 46 -117 88 -539 402 -1030
947 -1376 1530 -151 254 -314 592 -408 846 -79 212 -185 564 -204 678 -3 19
-8 37 -10 41 -2 4 -6 20 -9 36 -3 16 -10 54 -16 84 -16 81 -38 209 -45 260 -3
25 -8 52 -10 60 -2 8 -6 47 -10 85 -3 39 -8 81 -10 95 -5 31 -16 162 -21 250
-4 81 -4 524 1 605 3 68 14 193 20 245 2 19 7 60 11 90 3 30 7 64 9 75 1 11 6
47 10 80 4 33 9 62 10 65 2 3 6 26 10 50 14 93 58 301 95 445 228 885 700
1720 1340 2370 225 228 331 322 665 581 52 41 402 267 495 321 198 114 456
239 657 318 65 25 127 50 138 55 50 23 381 129 451 145 10 2 73 18 138 34 66
17 135 33 154 36 19 3 37 7 41 9 3 2 24 7 46 10 22 4 55 9 74 12 18 3 43 8 55
10 11 3 37 7 56 9 19 3 44 7 55 9 11 3 43 8 70 11 28 3 66 7 85 10 19 3 60 7
90 10 30 3 75 7 100 10 25 2 117 7 205 11 88 4 161 7 162 8 3 3 228 -3 358 -9z"/>
<path d="M8679 8806 c0 -1024 -2 -1881 -4 -1906 -37 -391 -220 -625 -534 -683
-125 -24 -310 -11 -430 29 -233 78 -373 308 -382 627 -1 36 -5 70 -8 75 -4 6
-205 9 -546 8 l-540 -1 1 -55 c1 -67 13 -226 19 -255 2 -11 7 -38 10 -60 14
-102 72 -286 123 -395 213 -452 634 -742 1202 -826 305 -45 606 -39 865 17
205 44 448 143 590 239 33 22 76 51 95 64 129 87 299 279 399 451 75 129 137
271 156 355 2 8 11 47 20 85 22 92 33 163 42 260 4 44 8 924 8 1955 l0 1875
-542 1 -543 1 -1 -1861z"/>
</g>
</svg>
